<svg width="1920.0000000000002" height="1080" xmlns="http://www.w3.org/2000/svg" data-name="Layer 1">
 <title>vnoi</title>

 <g>
  <title>Layer 1</title>
  <rect id="svg_18" height="1080" width="1920" y="0" x="0" fill="#23272a "/>
  <g id="svg_17">
   <path id="svg_6" fill="#c1272d" d="m958.22239,352.07554l0,358.55098l-79.5497,0l-150.86488,-191.1563l0,191.1563l-94.74254,0l0,-358.55098l79.58008,0l150.86488,191.1259l0,-191.1259l94.71215,0l0.00001,0z" class="cls-4"/>
   <g id="svg_11">
    <circle id="svg_2" fill="#ffc300" r="179.2699" cy="531.35103" cx="1190.60015" class="cls-2"/>
    <path id="svg_7" fill="#ff9f00" d="m1306.03186,503.31847a18.00806,18.00806 0 0 1 -1.77079,7.83351a17.01763,17.01763 0 0 1 -5.04225,6.15275l-50.21249,38.17711l19.11856,61.79768a19.23862,19.23862 0 0 1 0.81036,5.43244a17.76796,17.76796 0 0 1 -1.26057,6.66299a16.80753,16.80753 0 0 1 -8.73391,9.18412a15.90713,15.90713 0 0 1 -6.36285,1.32059a15.69704,15.69704 0 0 1 -9.66433,-3.30147l-50.12246,-38.20711l-50.09244,38.20711a15.45692,15.45692 0 0 1 -9.66433,3.30147a15.00673,15.00673 0 0 1 -6.36285,-1.38062a17.07765,17.07765 0 0 1 -5.22234,-3.72166a18.60834,18.60834 0 0 1 -3.57161,-5.52247a17.37779,17.37779 0 0 1 -1.32059,-6.75303a18.45827,18.45827 0 0 1 0.81036,-5.22234l19.2086,-61.79768l-50.09244,-38.17711a16.71749,16.71749 0 0 1 -5.04225,-6.15275a18.00806,18.00806 0 0 1 -1.77079,-7.83351a16.71749,16.71749 0 0 1 1.32059,-6.66299a18.00806,18.00806 0 0 1 3.54159,-5.49246a17.31775,17.31775 0 0 1 5.25235,-3.75168a14.76661,14.76661 0 0 1 6.33284,-1.38062l61.91775,0l19.11856,-61.76768a17.25773,17.25773 0 0 1 6.00268,-8.64387a15.75706,15.75706 0 0 1 19.29865,0a17.25773,17.25773 0 0 1 6.00268,8.64387l19.2086,61.76768l61.88773,0a15.00673,15.00673 0 0 1 6.36285,1.38062a16.80753,16.80753 0 0 1 5.22234,3.75168a17.52785,17.52785 0 0 1 3.57161,5.49246a17.25773,17.25773 0 0 1 1.32059,6.66299l0.00002,-0.00002l-0.00002,0z" class="cls-5"/>
   </g>
   <g id="svg_13">
    <path id="svg_5" fill="#a8161b" d="m583.17198,352.07554l-146.48935,358.55098l-95.19833,0l-145.85125,-358.55098l104.46596,0l92.76747,233.66585l94.59062,-233.66585l95.71488,0z" class="cls-3"/>
    <path id="svg_9" fill="#c1272d" d="m436.68264,710.62653l-95.19833,0l-145.85125,-358.55098l104.46596,0l92.76747,233.66585l43.81615,124.88514l0,-0.00001z" class="cls-4"/>
   </g>
   <g id="svg_15">
    <path id="svg_1" fill="#0071bc" d="m1524.88491,353.08161l96.32259,0l0,357.33555l-96.32259,0l0,-357.33555z" class="cls-1"/>
    <path id="svg_3" fill="#0071bc" d="m1724.36688,613.60173l0,96.68722l-301.27398,0l0,-96.68722l301.27398,0z" class="cls-1"/>
    <path id="svg_4" fill="#0071bc" d="m1724.36688,352.35901l0,96.68722l-301.27398,0l0,-96.68722l301.27398,0z" class="cls-1"/>
    <path id="svg_10" fill="#23bc72" d="m1724.36688,352.28489l0,96.68722l-98.05457,-96.68722l98.05457,0z" class="cls-7"/>
   </g>
  </g>
  <text font-weight="normal" xml:space="preserve" text-anchor="start" font-family="Noto Sans JP" font-size="128" id="svg_8" y="317.27271" x="189.09089" stroke-width="0" stroke="#000" fill="#ffffff">From</text>
  <text xml:space="preserve" text-anchor="start" font-family="Noto Sans JP" font-size="128" stroke-width="0" id="svg_12" y="862.72724" x="1278.18175" fill="#ffffff">with</text>
  <path id="svg_14" d="m1642.79414,782.24442c31.44407,-90.20842 154.64296,0 0,115.98226c-154.64296,-115.98226 -31.44407,-206.19068 0,-115.98226z" stroke-width="0" fill="#c1272d"/>
 </g>
</svg>